<svg width="931" height="276" viewBox="0 0 931 276" fill="none" xmlns="http://www.w3.org/2000/svg">
<path d="M298.96 43.01C305.547 43.01 310.803 43.6433 314.73 44.91C318.657 46.1767 322.647 48.0133 326.7 50.42C328.093 51.18 329.297 51.8133 330.31 52.32C331.45 52.8267 332.4 53.08 333.16 53.08C334.3 53.08 335.187 52.4467 335.82 51.18C336.453 49.7867 336.96 47.6333 337.34 44.72H341.71C341.077 53.2067 340.76 67.6467 340.76 88.04H336.39C335.883 81.2 334.3 74.6767 331.64 68.47C329.107 62.2633 325.433 57.26 320.62 53.46C315.933 49.5333 310.423 47.57 304.09 47.57C297.883 47.57 292.817 49.3433 288.89 52.89C285.09 56.31 283.19 60.9967 283.19 66.95C283.19 71.3833 284.14 75.2467 286.04 78.54C287.94 81.8333 290.6 84.8733 294.02 87.66C297.44 90.32 302.697 93.9933 309.79 98.68L315.87 102.86C323.343 107.8 329.233 112.107 333.54 115.78C337.847 119.453 341.33 123.76 343.99 128.7C346.777 133.513 348.17 139.15 348.17 145.61C348.17 153.717 346.08 160.557 341.9 166.13C337.72 171.577 332.02 175.693 324.8 178.48C317.707 181.267 309.79 182.66 301.05 182.66C293.957 182.66 288.067 182.027 283.38 180.76C278.693 179.493 274.387 177.783 270.46 175.63C267.673 173.857 265.52 172.97 264 172.97C262.86 172.97 261.973 173.667 261.34 175.06C260.707 176.327 260.2 178.417 259.82 181.33H255.45C255.957 173.35 256.21 156.25 256.21 130.03H260.58C261.467 144.217 264.633 155.743 270.08 164.61C275.527 173.35 283.887 177.72 295.16 177.72C302 177.72 307.637 175.883 312.07 172.21C316.503 168.537 318.72 163.28 318.72 156.44C318.72 149.347 316.44 143.267 311.88 138.2C307.32 133.133 300.1 127.433 290.22 121.1C282.62 116.16 276.54 111.853 271.98 108.18C267.42 104.507 263.683 100.2 260.77 95.26C257.857 90.1933 256.4 84.3667 256.4 77.78C256.4 70.18 258.3 63.7833 262.1 58.59C266.027 53.27 271.22 49.3433 277.68 46.81C284.14 44.2767 291.233 43.01 298.96 43.01ZM525.817 49.28C521.51 49.5333 518.407 50.04 516.507 50.8C514.607 51.56 513.277 53.0167 512.517 55.17C511.884 57.3233 511.567 60.8067 511.567 65.62V159.86C511.567 164.673 511.884 168.157 512.517 170.31C513.277 172.463 514.607 173.92 516.507 174.68C518.534 175.44 521.637 175.947 525.817 176.2V180C518.85 179.62 508.907 179.43 495.987 179.43C482.434 179.43 472.427 179.62 465.967 180V176.2C470.527 175.947 473.82 175.44 475.847 174.68C478 173.92 479.457 172.463 480.217 170.31C480.977 168.157 481.357 164.673 481.357 159.86V60.49L435.567 180.19H432.527L381.227 57.83V148.84C381.227 156.313 381.607 161.823 382.367 165.37C383.127 168.79 384.774 171.323 387.307 172.97C389.84 174.49 393.957 175.567 399.657 176.2V180C394.717 179.62 387.877 179.43 379.137 179.43C372.17 179.43 366.66 179.62 362.607 180V176.2C366.787 175.567 369.827 174.49 371.727 172.97C373.754 171.45 375.084 169.043 375.717 165.75C376.477 162.457 376.857 157.58 376.857 151.12V65.62C376.857 60.8067 376.477 57.3233 375.717 55.17C375.084 53.0167 373.754 51.56 371.727 50.8C369.827 50.04 366.787 49.5333 362.607 49.28V45.48C366.66 45.86 372.17 46.05 379.137 46.05C390.79 46.05 400.797 45.86 409.157 45.48L447.537 138.01L482.497 46.05H495.987C508.907 46.05 518.85 45.86 525.817 45.48V49.28ZM648.131 164.04C649.778 168.22 651.678 171.26 653.831 173.16C655.984 175.06 658.074 176.073 660.101 176.2V180C652.501 179.62 642.874 179.43 631.221 179.43C618.301 179.43 608.674 179.62 602.341 180V176.2C607.154 175.947 610.574 175.377 612.601 174.49C614.628 173.477 615.641 171.767 615.641 169.36C615.641 167.08 614.881 164.04 613.361 160.24L601.961 129.08H560.541L555.601 142.19C552.054 151.31 550.281 158.34 550.281 163.28C550.281 167.967 551.674 171.26 554.461 173.16C557.374 174.933 561.618 175.947 567.191 176.2V180C558.578 179.62 550.724 179.43 543.631 179.43C537.804 179.43 532.991 179.62 529.191 180V176.2C535.398 175.06 540.844 168.41 545.531 156.25L588.851 45.1C590.244 45.2267 592.461 45.29 595.501 45.29C598.541 45.29 600.694 45.2267 601.961 45.1L648.131 164.04ZM600.631 125.28L581.821 73.98L562.061 125.28H600.631ZM790.339 171.64C786.919 175.567 783.245 178.353 779.319 180C775.392 181.773 770.642 182.66 765.069 182.66C757.722 182.66 751.895 181.14 747.589 178.1C743.409 174.933 740.685 169.613 739.419 162.14L735.999 143.14C734.352 133.893 732.325 127.117 729.919 122.81C727.639 118.377 723.775 116.16 718.329 116.16H705.979V159.86C705.979 164.673 706.295 168.157 706.929 170.31C707.689 172.463 709.019 173.92 710.919 174.68C712.819 175.44 715.922 175.947 720.229 176.2V180C713.389 179.62 703.825 179.43 691.539 179.43C677.985 179.43 667.979 179.62 661.519 180V176.2C665.699 175.947 668.739 175.44 670.639 174.68C672.665 173.92 673.995 172.463 674.629 170.31C675.389 168.157 675.769 164.673 675.769 159.86V65.62C675.769 60.8067 675.389 57.3233 674.629 55.17C673.995 53.0167 672.665 51.56 670.639 50.8C668.739 50.04 665.699 49.5333 661.519 49.28V45.48C667.979 45.86 677.605 46.05 690.399 46.05L711.489 45.86C714.022 45.7333 716.935 45.67 720.229 45.67C737.709 45.67 750.819 48.52 759.559 54.22C768.425 59.92 772.859 68.09 772.859 78.73C772.859 87.7233 769.565 95.64 762.979 102.48C756.392 109.32 745.499 113.627 730.299 115.4C741.699 116.413 750.185 118.883 755.759 122.81C761.332 126.737 764.942 132.627 766.589 140.48L770.959 160.05C771.972 165.117 773.112 168.663 774.379 170.69C775.772 172.717 777.672 173.73 780.079 173.73C781.599 173.603 782.865 173.223 783.879 172.59C785.019 171.957 786.285 170.88 787.679 169.36L790.339 171.64ZM717.759 49.28C714.339 49.28 711.805 49.7233 710.159 50.61C708.639 51.4967 707.562 53.08 706.929 55.36C706.295 57.64 705.979 61.06 705.979 65.62V112.36H714.149C724.535 112.36 731.629 109.637 735.429 104.19C739.355 98.6167 741.319 90.8267 741.319 80.82C741.319 70.4333 739.482 62.58 735.809 57.26C732.135 51.94 726.119 49.28 717.759 49.28ZM908.035 45.48C907.148 57.5133 906.705 68.28 906.705 77.78C906.705 83.7333 906.895 88.5467 907.275 92.22H902.905C899.865 76.64 895.685 65.6833 890.365 59.35C885.171 53.0167 878.015 49.85 868.895 49.85H864.525V158.34C864.525 163.66 865.031 167.523 866.045 169.93C867.185 172.337 869.085 173.983 871.745 174.87C874.531 175.63 878.901 176.073 884.855 176.2V180C868.895 179.62 856.861 179.43 848.755 179.43C840.775 179.43 829.185 179.62 813.985 180V176.2C819.938 176.073 824.245 175.63 826.905 174.87C829.691 173.983 831.591 172.337 832.605 169.93C833.745 167.523 834.315 163.66 834.315 158.34V49.85H830.135C824.055 49.85 818.861 51.18 814.555 53.84C810.375 56.5 806.765 60.9333 803.725 67.14C800.685 73.22 798.088 81.58 795.935 92.22H791.565C791.945 88.5467 792.135 83.7333 792.135 77.78C792.135 68.28 791.691 57.5133 790.805 45.48C802.331 45.86 821.901 46.05 849.515 46.05C877.128 46.05 896.635 45.86 908.035 45.48Z" fill="white"/>
<path d="M280.08 228.18C281.163 229.567 281.965 231.17 282.485 232.99C283.048 234.81 283.33 236.478 283.33 237.995C283.33 239.512 283.243 240.877 283.07 242.09H262.66C262.747 244.647 263.375 246.727 264.545 248.33C265.715 249.933 267.492 250.735 269.875 250.735C273.038 250.735 274.923 249.348 275.53 246.575H283.265C282.745 249.738 281.293 252.23 278.91 254.05C276.44 255.957 273.428 256.91 269.875 256.91C265.715 256.91 262.227 255.393 259.41 252.36C256.507 249.197 255.055 245.145 255.055 240.205C255.055 235.135 256.507 231.062 259.41 227.985C262.183 225.038 265.672 223.565 269.875 223.565C274.252 223.565 277.653 225.103 280.08 228.18ZM269.94 229.675C267.773 229.675 266.083 230.39 264.87 231.82C263.657 233.207 262.942 235.005 262.725 237.215H276.18C276.18 233.792 275.097 231.495 272.93 230.325C272.107 229.892 271.11 229.675 269.94 229.675ZM296.803 246.38C296.889 249.37 299.078 250.865 303.368 250.865C305.014 250.865 306.358 250.518 307.398 249.825C308.481 249.088 309.023 248.243 309.023 247.29C309.023 246.337 308.698 245.6 308.048 245.08C307.398 244.56 306.379 244.083 304.993 243.65L298.103 241.18C292.989 239.403 290.433 236.5 290.433 232.47C290.433 229.783 291.624 227.638 294.008 226.035C296.434 224.388 299.663 223.565 303.693 223.565C307.766 223.565 310.886 224.453 313.053 226.23C315.263 228.007 316.411 230.238 316.498 232.925H309.283C309.196 231.885 308.698 231.062 307.788 230.455C306.878 229.848 305.578 229.545 303.888 229.545C302.198 229.545 300.876 229.892 299.923 230.585C299.013 231.235 298.558 231.993 298.558 232.86C298.558 234.377 299.836 235.503 302.393 236.24L309.868 239.035C312.338 239.858 314.223 240.92 315.523 242.22C316.866 243.477 317.538 245.123 317.538 247.16C317.538 249.76 316.303 252.013 313.833 253.92C311.276 255.913 307.896 256.91 303.693 256.91C299.489 256.91 296.109 256 293.553 254.18C290.996 252.317 289.696 249.717 289.653 246.38H296.803ZM331.08 246.38C331.167 249.37 333.355 250.865 337.645 250.865C339.292 250.865 340.635 250.518 341.675 249.825C342.758 249.088 343.3 248.243 343.3 247.29C343.3 246.337 342.975 245.6 342.325 245.08C341.675 244.56 340.657 244.083 339.27 243.65L332.38 241.18C327.267 239.403 324.71 236.5 324.71 232.47C324.71 229.783 325.902 227.638 328.285 226.035C330.712 224.388 333.94 223.565 337.97 223.565C342.043 223.565 345.163 224.453 347.33 226.23C349.54 228.007 350.688 230.238 350.775 232.925H343.56C343.473 231.885 342.975 231.062 342.065 230.455C341.155 229.848 339.855 229.545 338.165 229.545C336.475 229.545 335.153 229.892 334.2 230.585C333.29 231.235 332.835 231.993 332.835 232.86C332.835 234.377 334.113 235.503 336.67 236.24L344.145 239.035C346.615 239.858 348.5 240.92 349.8 242.22C351.143 243.477 351.815 245.123 351.815 247.16C351.815 249.76 350.58 252.013 348.11 253.92C345.553 255.913 342.173 256.91 337.97 256.91C333.767 256.91 330.387 256 327.83 254.18C325.273 252.317 323.973 249.717 323.93 246.38H331.08ZM371.467 237.54C373.981 237.54 376.884 237.952 380.177 238.775V235.655C380.177 233.445 379.722 231.82 378.812 230.78C377.946 229.697 376.494 229.155 374.457 229.155C372.464 229.155 370.926 229.567 369.842 230.39C368.759 231.17 368.217 232.297 368.217 233.77H359.832C359.832 230.173 361.089 227.573 363.602 225.97C366.159 224.367 369.712 223.565 374.262 223.565C380.762 223.565 384.966 225.84 386.872 230.39C387.522 231.95 387.847 233.792 387.847 235.915V256H381.152L380.567 251.775C378.531 255.198 375.411 256.91 371.207 256.91C367.134 256.91 363.971 255.913 361.717 253.92C359.637 252.013 358.597 249.608 358.597 246.705C358.597 243.758 359.746 241.505 362.042 239.945C364.339 238.342 367.481 237.54 371.467 237.54ZM380.177 243.65C377.621 242.957 375.237 242.61 373.027 242.61C368.867 242.61 366.787 243.997 366.787 246.77C366.787 247.94 367.264 248.958 368.217 249.825C369.171 250.648 370.687 251.06 372.767 251.06C374.891 251.06 376.624 250.367 377.967 248.98C379.354 247.55 380.091 245.773 380.177 243.65ZM402.926 224.41L410.531 247.16L417.161 224.41H424.961L412.871 261.72C411.615 265.49 410.076 268.198 408.256 269.845C406.48 271.492 404.205 272.315 401.431 272.315C398.615 272.315 395.798 271.622 392.981 270.235V263.475C395.235 264.905 397.51 265.62 399.806 265.62C401.323 265.62 402.558 265.013 403.511 263.8C404.508 262.587 405.31 261.005 405.916 259.055L406.891 256L394.216 224.41H402.926ZM451.016 224.41L457.386 246.965L463.431 226.165H470.386L476.431 247.03L482.866 224.41H490.536L480.136 256H472.596L466.746 237.085L461.026 256H453.421L442.956 224.41H451.016ZM505.149 230.65C507.055 226.1 509.915 223.825 513.729 223.825C514.465 223.825 515.397 223.977 516.524 224.28L516.394 231.95C515.18 231.69 513.989 231.56 512.819 231.56C507.705 231.56 505.149 235.092 505.149 242.155V256H497.479V224.345H505.149V230.65ZM525.17 224.345H532.84V256H525.17V224.345ZM524.26 214.205C524.26 212.818 524.671 211.735 525.495 210.955C526.318 210.132 527.488 209.72 529.005 209.72C530.478 209.72 531.626 210.132 532.45 210.955C533.316 211.735 533.75 212.818 533.75 214.205C533.75 215.592 533.316 216.697 532.45 217.52C531.626 218.3 530.478 218.69 529.005 218.69C527.488 218.69 526.318 218.3 525.495 217.52C524.671 216.697 524.26 215.592 524.26 214.205ZM563.658 255.22C560.798 256.347 558.544 256.91 556.898 256.91C555.251 256.91 553.799 256.715 552.543 256.325C551.329 255.935 550.246 255.35 549.293 254.57C547.299 252.793 546.303 250.345 546.303 247.225V229.545H541.883V224.41H546.303V216.09H553.973V224.41H562.553V229.545H553.973V246.965C553.973 249.565 555.208 250.865 557.678 250.865C558.934 250.865 560.559 250.518 562.553 249.825L563.658 255.22ZM572.142 224.345H579.812V256H572.142V224.345ZM571.232 214.205C571.232 212.818 571.644 211.735 572.467 210.955C573.291 210.132 574.461 209.72 575.977 209.72C577.451 209.72 578.599 210.132 579.422 210.955C580.289 211.735 580.722 212.818 580.722 214.205C580.722 215.592 580.289 216.697 579.422 217.52C578.599 218.3 577.451 218.69 575.977 218.69C574.461 218.69 573.291 218.3 572.467 217.52C571.644 216.697 571.232 215.592 571.232 214.205ZM600.36 229.87C602.44 225.667 605.777 223.565 610.37 223.565C614.27 223.565 617.195 224.843 619.145 227.4C621.139 229.957 622.135 233.337 622.135 237.54V256H614.465V237.54C614.465 235.2 613.902 233.445 612.775 232.275C611.649 231.062 610.067 230.455 608.03 230.455C605.994 230.455 604.239 231.365 602.765 233.185C601.335 235.005 600.577 237.735 600.49 241.375V256H592.82V224.41H599.515L600.36 229.87ZM636.048 243.065C633.492 240.898 632.213 238.19 632.213 234.94C632.213 231.517 633.557 228.743 636.243 226.62C638.843 224.583 641.812 223.565 645.148 223.565C648.528 223.565 651.345 224.193 653.598 225.45C653.858 222.98 654.92 220.987 656.783 219.47C658.603 217.953 660.748 217.195 663.218 217.195L662.828 224.54C659.102 224.54 657.173 225.775 657.043 228.245C658.647 230.238 659.448 232.275 659.448 234.355C659.448 236.435 659.08 238.19 658.343 239.62C657.607 241.007 656.61 242.177 655.353 243.13C652.753 245.21 649.59 246.25 645.863 246.25C643.74 246.25 641.812 245.925 640.078 245.275C638.345 245.795 637.478 246.835 637.478 248.395C637.478 250.345 639.125 251.32 642.418 251.32H653.013C660.207 251.32 663.803 253.833 663.803 258.86C663.803 260.55 663.37 262.197 662.503 263.8C661.68 265.447 660.467 266.898 658.863 268.155C655.31 270.928 650.847 272.315 645.473 272.315C640.273 272.315 636.048 271.253 632.798 269.13C629.765 267.093 628.248 264.602 628.248 261.655C628.248 259.705 628.833 258.145 630.003 256.975C631.217 255.848 632.798 255.133 634.748 254.83C632.192 253.27 630.913 251.342 630.913 249.045C630.913 247.528 631.39 246.272 632.343 245.275C633.297 244.235 634.532 243.498 636.048 243.065ZM641.898 256.715C637.825 256.888 635.788 258.427 635.788 261.33C635.788 262.803 636.633 263.973 638.323 264.84C640.057 265.75 642.093 266.205 644.433 266.205C646.773 266.205 648.593 266.01 649.893 265.62C651.237 265.23 652.363 264.71 653.273 264.06C655.223 262.76 656.198 261.2 656.198 259.38C656.198 258.6 655.917 257.95 655.353 257.43C654.833 256.953 654.053 256.715 653.013 256.715H641.898ZM651.843 234.875C651.843 233.098 651.345 231.668 650.348 230.585C649.395 229.458 647.922 228.895 645.928 228.895C643.935 228.895 642.418 229.458 641.378 230.585C640.338 231.668 639.818 233.098 639.818 234.875C639.818 236.608 640.338 238.038 641.378 239.165C642.418 240.292 643.935 240.855 645.928 240.855C647.922 240.855 649.395 240.292 650.348 239.165C651.345 238.038 651.843 236.608 651.843 234.875ZM691.881 246.38C691.968 249.37 694.156 250.865 698.446 250.865C700.093 250.865 701.436 250.518 702.476 249.825C703.559 249.088 704.101 248.243 704.101 247.29C704.101 246.337 703.776 245.6 703.126 245.08C702.476 244.56 701.458 244.083 700.071 243.65L693.181 241.18C688.068 239.403 685.511 236.5 685.511 232.47C685.511 229.783 686.703 227.638 689.086 226.035C691.513 224.388 694.741 223.565 698.771 223.565C702.844 223.565 705.964 224.453 708.131 226.23C710.341 228.007 711.489 230.238 711.576 232.925H704.361C704.274 231.885 703.776 231.062 702.866 230.455C701.956 229.848 700.656 229.545 698.966 229.545C697.276 229.545 695.954 229.892 695.001 230.585C694.091 231.235 693.636 231.993 693.636 232.86C693.636 234.377 694.914 235.503 697.471 236.24L704.946 239.035C707.416 239.858 709.301 240.92 710.601 242.22C711.944 243.477 712.616 245.123 712.616 247.16C712.616 249.76 711.381 252.013 708.911 253.92C706.354 255.913 702.974 256.91 698.771 256.91C694.568 256.91 691.188 256 688.631 254.18C686.074 252.317 684.774 249.717 684.731 246.38H691.881ZM743.903 228.18C744.987 229.567 745.788 231.17 746.308 232.99C746.872 234.81 747.153 236.478 747.153 237.995C747.153 239.512 747.067 240.877 746.893 242.09H726.483C726.57 244.647 727.198 246.727 728.368 248.33C729.538 249.933 731.315 250.735 733.698 250.735C736.862 250.735 738.747 249.348 739.353 246.575H747.088C746.568 249.738 745.117 252.23 742.733 254.05C740.263 255.957 737.252 256.91 733.698 256.91C729.538 256.91 726.05 255.393 723.233 252.36C720.33 249.197 718.878 245.145 718.878 240.205C718.878 235.135 720.33 231.062 723.233 227.985C726.007 225.038 729.495 223.565 733.698 223.565C738.075 223.565 741.477 225.103 743.903 228.18ZM733.763 229.675C731.597 229.675 729.907 230.39 728.693 231.82C727.48 233.207 726.765 235.005 726.548 237.215H740.003C740.003 233.792 738.92 231.495 736.753 230.325C735.93 229.892 734.933 229.675 733.763 229.675ZM764.006 230.65C765.913 226.1 768.773 223.825 772.586 223.825C773.323 223.825 774.254 223.977 775.381 224.28L775.251 231.95C774.038 231.69 772.846 231.56 771.676 231.56C766.563 231.56 764.006 235.092 764.006 242.155V256H756.336V224.345H764.006V230.65ZM786.952 224.41L794.167 248.395L801.447 224.41H810.287L798.522 256H789.877L778.112 224.41H786.952ZM817.733 224.345H825.403V256H817.733V224.345ZM816.823 214.205C816.823 212.818 817.235 211.735 818.058 210.955C818.881 210.132 820.051 209.72 821.568 209.72C823.041 209.72 824.19 210.132 825.013 210.955C825.88 211.735 826.313 212.818 826.313 214.205C826.313 215.592 825.88 216.697 825.013 217.52C824.19 218.3 823.041 218.69 821.568 218.69C820.051 218.69 818.881 218.3 818.058 217.52C817.235 216.697 816.823 215.592 816.823 214.205ZM850.436 223.565C852.43 223.565 854.206 223.912 855.766 224.605C857.37 225.255 858.713 226.122 859.796 227.205C861.963 229.285 863.241 231.907 863.631 235.07L855.896 235.265C855.55 233.878 854.9 232.73 853.946 231.82C853.036 230.91 851.975 230.455 850.761 230.455C849.548 230.455 848.508 230.65 847.641 231.04C846.775 231.387 846.016 231.95 845.366 232.73C843.893 234.55 843.156 237.063 843.156 240.27C843.156 243.477 843.85 245.903 845.236 247.55C846.623 249.153 848.291 249.955 850.241 249.955C852.235 249.955 853.665 249.5 854.531 248.59C855.441 247.637 855.896 246.358 855.896 244.755H863.631C863.631 248.222 862.483 251.103 860.186 253.4C857.846 255.74 854.575 256.91 850.371 256.91C846.211 256.91 842.723 255.393 839.906 252.36C836.916 249.11 835.421 245.058 835.421 240.205C835.421 235.092 836.916 230.997 839.906 227.92C842.723 225.017 846.233 223.565 850.436 223.565ZM894.914 228.18C895.997 229.567 896.799 231.17 897.319 232.99C897.882 234.81 898.164 236.478 898.164 237.995C898.164 239.512 898.077 240.877 897.904 242.09H877.494C877.581 244.647 878.209 246.727 879.379 248.33C880.549 249.933 882.326 250.735 884.709 250.735C887.872 250.735 889.757 249.348 890.364 246.575H898.099C897.579 249.738 896.127 252.23 893.744 254.05C891.274 255.957 888.262 256.91 884.709 256.91C880.549 256.91 877.061 255.393 874.244 252.36C871.341 249.197 869.889 245.145 869.889 240.205C869.889 235.135 871.341 231.062 874.244 227.985C877.017 225.038 880.506 223.565 884.709 223.565C889.086 223.565 892.487 225.103 894.914 228.18ZM884.774 229.675C882.607 229.675 880.917 230.39 879.704 231.82C878.491 233.207 877.776 235.005 877.559 237.215H891.014C891.014 233.792 889.931 231.495 887.764 230.325C886.941 229.892 885.944 229.675 884.774 229.675Z" fill="white"/>
<path d="M164.488 26.8564C145.032 8.28799 119.429 -1.15464 92.5589 0.112827C42.0504 2.52101 1.36469 44.0306 0.0338451 94.6659C-0.790008 125.782 13.469 155.631 38.1846 174.58C50.3523 183.896 57.5768 199.105 57.5768 215.265V219.448C50.986 221.222 46.0429 227.243 46.0429 234.404V236.686C46.0429 245.304 53.014 252.275 61.6327 252.275H64.2944C63.7241 253.923 63.3438 255.634 63.3438 257.472V259.753C63.3438 268.372 70.3149 275.343 78.9337 275.343H115.69C124.309 275.343 131.28 268.372 131.28 259.753V257.472C131.28 255.634 130.9 253.923 130.329 252.275H132.991C141.61 252.275 148.581 245.304 148.581 236.686V234.404C148.581 227.243 143.701 221.222 137.047 219.448V215.265C137.047 199.232 144.652 184.022 157.897 173.439C181.282 154.871 194.653 127.113 194.653 97.3275C194.653 70.4572 183.943 45.4248 164.488 26.8564ZM120.887 259.69C120.887 262.542 118.542 264.887 115.69 264.887H78.9337C76.0819 264.887 73.737 262.542 73.737 259.69V257.409C73.737 254.557 76.0819 252.212 78.9337 252.212H115.69C118.605 252.212 120.887 254.557 120.887 257.409V259.69ZM138.188 234.404V236.686C138.188 239.537 135.843 241.882 132.991 241.882H115.69H78.9337H61.6327C58.7809 241.882 56.4361 239.537 56.4361 236.686V234.404C56.4361 231.552 58.7809 229.207 61.6327 229.207H132.991C135.843 229.207 138.188 231.552 138.188 234.404ZM80.5814 149.737H69.9346C65.6253 149.737 62.1397 146.252 62.1397 141.942V139.091C62.1397 134.781 65.6253 131.296 69.9346 131.296H72.7864C77.0958 131.296 80.5814 134.781 80.5814 139.091V149.737ZM90.9746 218.814V160.067H103.649V218.814H90.9746ZM151.433 165.327C135.716 177.812 126.717 196 126.717 215.265V218.814H114.042V160.067H124.689C134.702 160.067 142.877 151.892 142.877 141.879V139.027C142.877 129.014 134.702 120.839 124.689 120.839H121.837C111.824 120.839 103.649 129.014 103.649 139.027V149.674H90.9746V139.027C90.9746 129.014 82.7994 120.839 72.7864 120.839H69.9346C59.9217 120.839 51.7465 129.014 51.7465 139.027V141.879C51.7465 151.892 59.9217 160.067 69.9346 160.067H80.5814V218.814H67.9067V215.265C67.9067 195.873 59.0978 177.622 44.3952 166.341C22.3413 149.42 9.60322 122.74 10.3003 94.9194C11.5044 49.7342 47.8173 12.6607 92.9392 10.5061C116.958 9.36533 139.835 17.8574 157.2 34.3978C174.564 51.0016 184.133 73.309 184.133 97.3275C184.26 123.944 172.283 148.723 151.433 165.327ZM114.042 149.737V139.091C114.042 134.781 117.528 131.296 121.837 131.296H124.689C128.999 131.296 132.484 134.781 132.484 139.091V141.942C132.484 146.252 128.999 149.737 124.689 149.737H114.042Z" fill="#DA6F5B"/>
</svg>
